<svg width="125" height="14" viewBox="0 0 125 14" fill="none" xmlns="http://www.w3.org/2000/svg">
<path d="M0.966797 0.396484H8.7627V1.78516H2.35547V5.66113H7.11035V7.07617H2.35547V13H0.966797V0.396484ZM15.5215 11.9102C18.4131 11.9102 20.7334 9.61621 20.7334 6.71582C20.7334 3.81543 18.4219 1.50391 15.5215 1.50391C12.6299 1.50391 10.3096 3.82422 10.3096 6.71582C10.3096 9.60742 12.6299 11.9102 15.5215 11.9102ZM22.1396 6.71582C22.1396 10.3809 19.1777 13.3076 15.5215 13.3076C11.8652 13.3076 8.90332 10.3809 8.90332 6.71582C8.90332 3.05957 11.8652 0.0888672 15.5215 0.0888672C19.1865 0.0888672 22.1396 3.05078 22.1396 6.71582ZM25.0928 1.81152V6.86523H28.292C29.7686 6.86523 30.9814 5.88086 30.9814 4.35156C30.9814 2.82227 29.7773 1.81152 28.292 1.81152H25.0928ZM31.4297 13L28.1777 8.27148H25.0928V13H23.6777V0.396484H28.292C30.5068 0.396484 32.3965 2.09277 32.3965 4.35156C32.3965 5.97754 31.3418 7.55957 29.7158 7.94629L33.2051 13H31.4297ZM45.5625 0.396484H46.8545V13H45.457V2.98047L40.5879 9.66016L35.7188 2.98047V13H34.3301V0.396484H35.6133L40.5879 7.22559L45.5625 0.396484ZM48.7969 0.396484H57.1904V1.80273H50.2119V5.73145H55.6172V7.1377H50.2119V11.5762H57.1904V13H48.7969V0.396484ZM68.3701 0.396484V10.1172C68.3701 11.8311 67.3857 13.2021 65.5752 13.2021C64.1777 13.2021 63.2021 12.3408 62.9121 11.0049L64.2217 10.4775C64.3184 11.2334 64.7754 11.7871 65.5752 11.7871C66.5771 11.7871 66.9551 11.0137 66.9551 10.1172V0.396484H68.3701ZM70.2422 0.396484H78.6357V1.80273H71.6572V5.73145H77.0625V7.1377H71.6572V11.5762H78.6357V13H70.2422V0.396484ZM87.7061 0.361328H89.0244L92.6719 10.8906L95.9678 0.396484H97.3828L93.3398 13H92.0039L88.3652 2.20703L84.7178 13H83.3906L79.3477 0.396484H80.7627L84.0586 10.8906L87.7061 0.361328ZM98.6133 0.396484H107.007V1.80273H100.028V5.73145H105.434V7.1377H100.028V11.5762H107.007V13H98.6133V0.396484ZM108.422 0.396484H109.828V11.585H115.541V13H108.422V0.396484ZM116.543 11.0664C117.545 11.4883 118.635 11.8486 119.733 11.8486C120.955 11.8486 122.977 11.3301 122.977 9.79199C122.977 6.56641 115.893 8.19238 115.893 3.61328C115.893 1.1084 118.415 0.176758 120.542 0.176758C121.667 0.176758 122.959 0.458008 123.979 0.941406L123.469 2.24219C122.546 1.85547 121.553 1.58301 120.551 1.58301C119.224 1.58301 117.299 1.92578 117.299 3.62207C117.299 6.83008 124.383 5.16016 124.383 9.80078C124.383 12.2617 121.825 13.2461 119.733 13.2461C118.441 13.2461 117.176 12.8418 115.998 12.3496L116.543 11.0664Z" fill="url(#paint0_linear_263_2)"/>
<defs>
<linearGradient id="paint0_linear_263_2" x1="-47.4783" y1="-3.59453e-05" x2="414.608" y2="43.0693" gradientUnits="userSpaceOnUse">
<stop/>
<stop offset="1" stop-color="#313131" stop-opacity="0"/>
</linearGradient>
</defs>
</svg>
